<svg width="23" height="22" viewBox="0 0 23 22" fill="none" xmlns="http://www.w3.org/2000/svg">
<rect x="1.45361" y="0.5" width="21" height="21" rx="4.5" stroke="#9E78CF"/>
<path d="M18.6306 6.94885L9.74236 15.8371C9.69076 15.8887 9.6295 15.9297 9.56206 15.9577C9.49462 15.9856 9.42233 16 9.34933 16C9.27633 16 9.20404 15.9856 9.1366 15.9577C9.06916 15.9297 9.00789 15.8887 8.9563 15.8371L5.0677 11.9485C4.96347 11.8442 4.90491 11.7029 4.90491 11.5554C4.90491 11.408 4.96347 11.2667 5.0677 11.1624C5.17194 11.0582 5.31332 10.9996 5.46073 10.9996C5.60814 10.9996 5.74952 11.0582 5.85376 11.1624L9.34933 14.6587L17.8445 6.1628C17.9488 6.05856 18.0901 6 18.2376 6C18.385 6 18.5263 6.05856 18.6306 6.1628C18.7348 6.26703 18.7934 6.40841 18.7934 6.55582C18.7934 6.70324 18.7348 6.84461 18.6306 6.94885Z" fill="#9E78CF"/>
</svg>
