<svg width="23" height="22" viewBox="0 0 23 22" fill="none" xmlns="http://www.w3.org/2000/svg">
<path d="M19.5161 4.125H4.39111C4.20878 4.125 4.03391 4.19743 3.90498 4.32636C3.77605 4.4553 3.70361 4.63016 3.70361 4.8125C3.70361 4.99484 3.77605 5.1697 3.90498 5.29864C4.03391 5.42757 4.20878 5.5 4.39111 5.5H5.07861V17.875C5.07861 18.2397 5.22348 18.5894 5.48134 18.8473C5.7392 19.1051 6.08894 19.25 6.45361 19.25H17.4536C17.8183 19.25 18.168 19.1051 18.4259 18.8473C18.6837 18.5894 18.8286 18.2397 18.8286 17.875V5.5H19.5161C19.6985 5.5 19.8733 5.42757 20.0023 5.29864C20.1312 5.1697 20.2036 4.99484 20.2036 4.8125C20.2036 4.63016 20.1312 4.4553 20.0023 4.32636C19.8733 4.19743 19.6985 4.125 19.5161 4.125ZM17.4536 17.875H6.45361V5.5H17.4536V17.875ZM7.82861 2.0625C7.82861 1.88016 7.90105 1.7053 8.02998 1.57636C8.15891 1.44743 8.33378 1.375 8.51611 1.375H15.3911C15.5735 1.375 15.7483 1.44743 15.8772 1.57636C16.0062 1.7053 16.0786 1.88016 16.0786 2.0625C16.0786 2.24484 16.0062 2.4197 15.8772 2.54864C15.7483 2.67757 15.5735 2.75 15.3911 2.75H8.51611C8.33378 2.75 8.15891 2.67757 8.02998 2.54864C7.90105 2.4197 7.82861 2.24484 7.82861 2.0625Z" fill="#9E78CF"/>
</svg>
